<?xml version="1.0" encoding="UTF-8"?>
<svg width="752pt" height="752pt" version="1.1" viewBox="0 0 752 752" xmlns="http://www.w3.org/2000/svg">
 <g>
  <path d="m346.65 363.42c3.3555-7.8281 9.5039-13.977 17.332-17.332 7.2695-2.7969 16.215-3.3555 24.043 0.55859 8.3867 3.3555 14.539 9.5039 17.332 17.332 3.3555 7.2695 3.3555 16.215 0 24.043-3.3555 8.3867-9.5039 14.539-17.332 17.332-7.2695 3.3555-16.215 3.3555-24.602 0-7.8281-3.3555-13.977-9.5039-17.332-17.332-2.7969-7.2695-3.3555-16.215 0.55859-24.602zm22.926-2.7969v0.55859c-3.9141 1.1172-6.7109 4.4727-8.3867 8.3867-2.2383 4.4727-1.6758 8.9453 0 12.301 1.1172 3.9141 4.4727 7.2695 8.3867 8.9453 4.4727 1.6758 8.9453 1.6758 12.301 0 3.9141-1.6758 7.2695-4.4727 8.9453-8.9453 1.6758-3.9141 1.6758-8.3867 0-12.301-1.6758-3.9141-4.4727-6.7109-8.3867-8.3867-4.4727-2.2383-8.9453-1.6758-12.859-0.55859z"/>
  <path d="m161.57 286.82c24.602-59.266 71.008-102.88 125.8-125.25 55.355-22.926 118.54-24.602 177.8 0 59.266 24.602 102.88 71.008 125.25 125.8 22.363 55.355 24.043 118.54-0.55859 177.8-24.602 59.266-71.008 102.88-125.8 125.25-54.793 22.363-118.54 24.043-177.24-0.55859-59.266-24.602-102.88-71.008-125.25-125.8-22.926-54.793-24.602-118.54 0-177.24zm138.66 57.59-48.086-31.312-65.418-41.934c-12.301 22.363-20.688 46.406-24.602 71.566l76.043 8.9453 57.59 7.2695c1.1172-5.0312 2.7969-10.062 4.4727-14.539zm7.8281-13.977c0.55859-1.6758 1.6758-2.7969 2.7969-3.9141l-112.95-73.805c-1.1172 1.6758-2.2383 3.3555-3.3555 5.0312l65.977 41.934zm147.61 62.621c-0.55859 5.0312-2.2383 9.5039-4.4727 14.539l48.645 30.754 65.418 42.492c3.9141-7.2695 7.2695-14.539 10.062-21.805 7.2695-16.773 11.742-33.547 14.539-50.32l-76.043-8.9453-58.148-6.7109zm-11.742 28.516c-1.1172 1.1172-1.6758 2.2383-2.7969 3.3555l112.38 73.805c1.1172-1.1172 2.2383-2.7969 3.3555-4.4727l-65.977-42.492-46.965-30.191zm-93.375-106.79c-15.656 6.7109-28.516 19.012-35.785 35.785-6.7109 16.773-6.1523 34.664 0 50.32 6.7109 15.656 19.012 29.074 35.785 35.785 16.773 7.2695 34.664 6.7109 50.32 0.55859 15.656-6.7109 29.074-19.012 35.785-35.785 7.2695-16.773 6.7109-35.227 0.55859-50.879-6.7109-15.656-19.012-28.516-35.785-35.785-16.773-6.7109-35.227-6.1523-50.879 0z"/>
 </g>
</svg>
